<svg width="132" height="196" viewBox="0 0 132 196" fill="none" xmlns="http://www.w3.org/2000/svg">
<path fill-rule="evenodd" clip-rule="evenodd" d="M42.3704 5.76074C47.7144 2.12458 54.1652 -3.5358e-06 61.1111 0C79.5615 0 94.5185 14.991 94.5185 33.4833C94.5185 44.0086 89.6732 53.3995 82.0962 59.5377C110.38 64.0386 132 88.5917 132 118.206C132 151.015 105.463 177.612 72.7288 177.612C64.875 177.612 57.3779 176.081 50.5185 173.3V191.28C45.5138 194.278 39.6613 196 33.4074 196C14.957 196 0 181.009 0 162.517C0 144.024 14.957 129.033 33.4074 129.033C36.5122 129.033 39.5181 129.458 42.3704 130.252V5.76074ZM70.0563 57.1667C79.5915 53.5469 86.3704 44.3086 86.3704 33.4833C86.3704 19.5013 75.0614 8.16667 61.1111 8.16666C57.3284 8.16666 53.74 9.00003 50.5185 10.4936V57.1667H70.0563ZM50.5185 66.9667H73.3333V66.9702C101.289 67.2949 123.852 90.1095 123.852 118.206C123.852 146.505 100.963 169.445 72.7288 169.445C64.7696 169.445 57.2351 167.622 50.5185 164.37V66.9667ZM42.3704 138.84C39.5849 137.78 36.5637 137.2 33.4074 137.2C19.4571 137.2 8.14815 148.535 8.14815 162.517C8.14815 176.499 19.4571 187.833 33.4074 187.833C36.5637 187.833 39.5849 187.253 42.3704 186.193V138.84Z" fill="white"/>
</svg>
